<svg width="27" height="24" viewBox="0 0 27 24" fill="none" xmlns="http://www.w3.org/2000/svg">
<path d="M23.0764 24H4.64241C4.52798 24 4.41823 23.9596 4.33731 23.8877C4.2564 23.8157 4.21094 23.7182 4.21094 23.6165V0.383531C4.21094 0.281812 4.2564 0.18426 4.33731 0.112334C4.41823 0.0404076 4.52798 0 4.64241 0L15.2307 0L23.5079 7.3575V23.6165C23.5079 23.7182 23.4624 23.8157 23.3815 23.8877C23.3006 23.9596 23.1908 24 23.0764 24Z" fill="#F9E7C0"/>
<path d="M15.2305 0L23.5077 7.3575H16.9898C16.0182 7.3575 15.2305 6.65733 15.2305 5.79361V0H15.2305Z" fill="#EAC083"/>
<path d="M12.3972 4.33055H6.66897C6.34481 4.33055 6.08203 4.09697 6.08203 3.80883C6.08203 3.52069 6.34481 3.28711 6.66897 3.28711H12.3972C12.7214 3.28711 12.9842 3.52069 12.9842 3.80883C12.9842 4.09697 12.7214 4.33055 12.3972 4.33055ZM12.9842 7.22381C12.9842 6.93567 12.7214 6.70209 12.3972 6.70209H6.66897C6.34481 6.70209 6.08203 6.93567 6.08203 7.22381C6.08203 7.51195 6.34481 7.74553 6.66897 7.74553H12.3972C12.7214 7.74553 12.9842 7.51195 12.9842 7.22381ZM12.9842 10.6388C12.9842 10.3507 12.7214 10.1171 12.3972 10.1171H6.66897C6.34481 10.1171 6.08203 10.3507 6.08203 10.6388C6.08203 10.927 6.34481 11.1606 6.66897 11.1606H12.3972C12.7214 11.1605 12.9842 10.927 12.9842 10.6388ZM17.9432 14.0538C17.9432 13.7657 17.6804 13.5321 17.3563 13.5321H6.66897C6.34481 13.5321 6.08203 13.7657 6.08203 14.0538C6.08203 14.342 6.34481 14.5755 6.66897 14.5755H17.3563C17.6804 14.5755 17.9432 14.342 17.9432 14.0538ZM19.9204 10.6388C19.9204 10.3507 19.6576 10.1171 19.3334 10.1171H15.3792C15.055 10.1171 14.7922 10.3507 14.7922 10.6388C14.7922 10.927 15.055 11.1606 15.3792 11.1606H19.3334C19.6576 11.1605 19.9204 10.927 19.9204 10.6388ZM15.8166 17.4689C15.8166 17.1808 15.5539 16.9471 15.2297 16.9471H6.66897C6.34481 16.9471 6.08203 17.1807 6.08203 17.4689C6.08203 17.757 6.34481 17.9906 6.66897 17.9906H15.2297C15.5539 17.9905 15.8166 17.757 15.8166 17.4689ZM19.3082 20.8838C19.3082 20.5958 19.0454 20.3621 18.7212 20.3621H6.66897C6.34481 20.3621 6.08203 20.5957 6.08203 20.8838C6.08203 21.172 6.34481 21.4056 6.66897 21.4056H18.7212C19.0454 21.4056 19.3082 21.172 19.3082 20.8838Z" fill="#597B91"/>
</svg>
