<svg width="41" height="41" viewBox="0 0 41 41" fill="none" xmlns="http://www.w3.org/2000/svg">
<path d="M27.9953 39.7188H13.0047C11.4992 39.7188 10.25 38.5016 10.25 36.9641V4.03594C10.25 2.53047 11.4992 1.28125 13.0047 1.28125H27.9953C29.5008 1.28125 30.75 2.49844 30.75 4.03594V36.9961C30.75 38.5016 29.5008 39.7188 27.9953 39.7188Z" fill="#424242"/>
<path d="M27.7924 38.4722H12.789C12.1003 38.4722 11.543 37.9148 11.543 37.2262V6.29359C11.543 5.60812 12.1003 5.05078 12.7858 5.05078H28.2088C28.8975 5.05078 29.4548 5.60812 29.4548 6.2968V37.0244C29.4548 37.3223 29.0064 38.4722 27.7924 38.4722Z" fill="black"/>
<path d="M23.5891 3.71211H17.4391C17.2148 3.71211 17.0547 3.51992 17.0547 3.32773C17.0547 3.13555 17.2469 2.94336 17.4391 2.94336H23.557C23.7813 2.94336 23.9414 3.13555 23.9414 3.32773C23.9414 3.51992 23.7813 3.71211 23.5891 3.71211Z" fill="#212121"/>
<path d="M27.9953 1.92188C29.1613 1.92188 30.1094 2.87 30.1094 4.03594V36.9961C30.1094 38.1428 29.1613 39.0781 27.9953 39.0781H13.0047C11.8387 39.0781 10.8906 38.13 10.8906 36.9641V4.03594C10.8906 2.88922 11.858 1.92188 13.0047 1.92188H27.9953ZM27.9953 1.28125H13.0047C11.4992 1.28125 10.25 2.53047 10.25 4.03594V36.9641C10.25 38.5016 11.4992 39.7188 13.0047 39.7188H27.9953C29.5008 39.7188 30.75 38.5016 30.75 36.9961V4.03594C30.75 2.49844 29.5008 1.28125 27.9953 1.28125Z" fill="#757575"/>
<path d="M15.4873 9.5957H13.4502C13.2163 9.5957 13.0273 9.40672 13.0273 9.17289V7.1357C13.0273 6.90188 13.2163 6.71289 13.4502 6.71289H15.4873C15.7212 6.71289 15.9102 6.90188 15.9102 7.1357V9.17289C15.9102 9.40672 15.7212 9.5957 15.4873 9.5957Z" fill="#EAB56E"/>
<path d="M19.5069 9.5957H17.4697C17.2359 9.5957 17.0469 9.40672 17.0469 9.17289V7.1357C17.0469 6.90188 17.2359 6.71289 17.4697 6.71289H19.5069C19.7407 6.71289 19.9297 6.90188 19.9297 7.1357V9.17289C19.9297 9.40672 19.7407 9.5957 19.5069 9.5957Z" fill="#FB8C00"/>
<path d="M23.5271 9.5957H21.4931C21.2593 9.5957 21.0703 9.40672 21.0703 9.17289V7.1357C21.0703 6.90188 21.2593 6.71289 21.4931 6.71289H23.5303C23.7641 6.71289 23.9531 6.90188 23.9531 7.1357V9.17289C23.9531 9.40672 23.7641 9.5957 23.5271 9.5957Z" fill="#FF80AB"/>
<path d="M27.5498 9.5957H25.5127C25.2788 9.5957 25.0898 9.40672 25.0898 9.17289V7.1357C25.0898 6.90188 25.2788 6.71289 25.5127 6.71289H27.5498C27.7837 6.71289 27.9727 6.90188 27.9727 7.1357V9.17289C27.9727 9.40672 27.7837 9.5957 27.5498 9.5957Z" fill="#0288D1"/>
<path d="M15.4873 14.1328H13.4502C13.2163 14.1328 13.0273 13.9438 13.0273 13.71V11.6728C13.0273 11.439 13.2163 11.25 13.4502 11.25H15.4873C15.7212 11.25 15.9102 11.439 15.9102 11.6728V13.71C15.9102 13.9438 15.7212 14.1328 15.4873 14.1328Z" fill="#00BFA5"/>
<path d="M19.5069 14.1328H17.4697C17.2359 14.1328 17.0469 13.9438 17.0469 13.71V11.6728C17.0469 11.439 17.2359 11.25 17.4697 11.25H19.5069C19.7407 11.25 19.9297 11.439 19.9297 11.6728V13.71C19.9297 13.9438 19.7407 14.1328 19.5069 14.1328Z" fill="#81D4FA"/>
<path d="M23.5271 14.1328H21.4931C21.2593 14.1328 21.0703 13.9438 21.0703 13.71V11.6728C21.0703 11.439 21.2593 11.25 21.4931 11.25H23.5303C23.7641 11.25 23.9531 11.439 23.9531 11.6728V13.71C23.9531 13.9438 23.7641 14.1328 23.5271 14.1328Z" fill="#FB8C00"/>
<path d="M27.5498 14.1328H25.5127C25.2788 14.1328 25.0898 13.9438 25.0898 13.71V11.6728C25.0898 11.439 25.2788 11.25 25.5127 11.25H27.5498C27.7837 11.25 27.9727 11.439 27.9727 11.6728V13.71C27.9727 13.9438 27.7837 14.1328 27.5498 14.1328Z" fill="#EAB56E"/>
<path d="M15.4873 18.668H13.4502C13.2163 18.668 13.0273 18.479 13.0273 18.2452V16.208C13.0273 15.9741 13.2163 15.7852 13.4502 15.7852H15.4873C15.7212 15.7852 15.9102 15.9741 15.9102 16.208V18.2452C15.9102 18.479 15.7212 18.668 15.4873 18.668Z" fill="#FB8C00"/>
<path d="M19.5069 18.668H17.4697C17.2359 18.668 17.0469 18.479 17.0469 18.2452V16.208C17.0469 15.9741 17.2359 15.7852 17.4697 15.7852H19.5069C19.7407 15.7852 19.9297 15.9741 19.9297 16.208V18.2452C19.9297 18.479 19.7407 18.668 19.5069 18.668Z" fill="#FF80AB"/>
<path d="M23.5271 18.668H21.4931C21.2593 18.668 21.0703 18.479 21.0703 18.2452V16.208C21.0703 15.9741 21.2593 15.7852 21.4931 15.7852H23.5303C23.7641 15.7852 23.9531 15.9741 23.9531 16.208V18.2452C23.9531 18.479 23.7641 18.668 23.5271 18.668Z" fill="#00BFA5"/>
<path d="M27.5503 18.668H25.5131C25.2793 18.668 25.0903 18.479 25.0903 18.2452V16.208C25.0903 15.9741 25.2793 15.7852 25.5131 15.7852H27.5503C27.7841 15.7852 27.9731 15.9741 27.9731 16.208V18.2452C27.9731 18.479 27.7841 18.668 27.5503 18.668ZM15.4873 23.2036H13.4502C13.2163 23.2036 13.0273 23.0146 13.0273 22.7808V20.7436C13.0273 20.5098 13.2163 20.3208 13.4502 20.3208H15.4873C15.7212 20.3208 15.9102 20.5098 15.9102 20.7436V22.7808C15.9102 23.0146 15.7212 23.2036 15.4873 23.2036Z" fill="#0288D1"/>
<path d="M19.5073 23.2031H17.4701C17.2363 23.2031 17.0473 23.0141 17.0473 22.7803V20.7431C17.0473 20.5093 17.2363 20.3203 17.4701 20.3203H19.5073C19.7411 20.3203 19.9301 20.5093 19.9301 20.7431V22.7803C19.9301 23.0141 19.7411 23.2031 19.5073 23.2031ZM15.4873 36.81H13.4502C13.2163 36.81 13.0273 36.621 13.0273 36.3872V34.35C13.0273 34.1162 13.2163 33.9272 13.4502 33.9272H15.4873C15.7212 33.9272 15.9102 34.1162 15.9102 34.35V36.3872C15.9102 36.6178 15.7212 36.81 15.4873 36.81Z" fill="#81D4FA"/>
<path d="M19.5069 36.8105H17.4697C17.2359 36.8105 17.0469 36.6216 17.0469 36.3877V34.3505C17.0469 34.1167 17.2359 33.9277 17.4697 33.9277H19.5069C19.7407 33.9277 19.9297 34.1167 19.9297 34.3505V36.3877C19.9297 36.6184 19.7407 36.8105 19.5069 36.8105Z" fill="#0288D1"/>
<path d="M23.5271 36.8105H21.4931C21.2593 36.8105 21.0703 36.6216 21.0703 36.3877V34.3505C21.0703 34.1167 21.2593 33.9277 21.4931 33.9277H23.5303C23.7641 33.9277 23.9531 34.1167 23.9531 34.3505V36.3877C23.9531 36.6184 23.7641 36.8105 23.5271 36.8105Z" fill="#00BFA5"/>
<path d="M27.5498 36.8105H25.5127C25.2788 36.8105 25.0898 36.6216 25.0898 36.3877V34.3505C25.0898 34.1167 25.2788 33.9277 25.5127 33.9277H27.5498C27.7837 33.9277 27.9727 34.1167 27.9727 34.3505V36.3877C27.9727 36.6184 27.7837 36.8105 27.5498 36.8105Z" fill="#FF80AB"/>
</svg>
