<svg width="35" height="35" viewBox="0 0 35 35" fill="none" xmlns="http://www.w3.org/2000/svg">
<g clip-path="url(#clip0_1288_164)">
<path d="M31.1128 35L29.1684 33.0556L27.224 35L25.2795 33.0556L23.3351 35L21.3906 33.0556L19.4462 35L17.5017 33.0556L15.5573 35L13.6128 33.0556L11.6684 35L9.72396 33.0556L7.77951 35L5.83507 33.0556L3.89062 35V0L5.83507 1.94444L7.73868 0L9.72396 1.94444L11.7092 0L13.6128 1.94444L15.5981 0L17.5017 1.94444L19.5269 0L21.3906 1.94444L23.4566 0L25.2795 1.94444L27.1831 0L29.1684 1.94444L31.1128 0V35Z" fill="#CCD6DD"/>
<path d="M18.4718 16.5284H8.74957C8.21484 16.5284 7.77734 16.0909 7.77734 15.5562C7.77734 15.0215 8.21484 14.584 8.74957 14.584H18.4718C19.0065 14.584 19.444 15.0215 19.444 15.5562C19.444 16.0909 19.0065 16.5284 18.4718 16.5284ZM26.2496 16.5284H22.3607C21.826 16.5284 21.3885 16.0909 21.3885 15.5562C21.3885 15.0215 21.826 14.584 22.3607 14.584H26.2496C26.7843 14.584 27.2218 15.0215 27.2218 15.5562C27.2218 16.0909 26.7843 16.5284 26.2496 16.5284ZM18.4718 20.4173H8.74957C8.21484 20.4173 7.77734 19.9798 7.77734 19.4451C7.77734 18.9104 8.21484 18.4729 8.74957 18.4729H18.4718C19.0065 18.4729 19.444 18.9104 19.444 19.4451C19.444 19.9798 19.0065 20.4173 18.4718 20.4173ZM26.2496 20.4173H22.3607C21.826 20.4173 21.3885 19.9798 21.3885 19.4451C21.3885 18.9104 21.826 18.4729 22.3607 18.4729H26.2496C26.7843 18.4729 27.2218 18.9104 27.2218 19.4451C27.2218 19.9798 26.7843 20.4173 26.2496 20.4173ZM26.2496 26.2507H8.74957C8.21484 26.2507 7.77734 25.8132 7.77734 25.2784C7.77734 24.7437 8.21484 24.3062 8.74957 24.3062H26.2496C26.7843 24.3062 27.2218 24.7437 27.2218 25.2784C27.2218 25.8132 26.7843 26.2507 26.2496 26.2507ZM26.2496 30.1395H22.3607C21.826 30.1395 21.3885 29.702 21.3885 29.1673C21.3885 28.6326 21.826 28.1951 22.3607 28.1951H26.2496C26.7843 28.1951 27.2218 28.6326 27.2218 29.1673C27.2218 29.702 26.7843 30.1395 26.2496 30.1395Z" fill="#99AAB5"/>
<path d="M17.4983 11.6664C19.646 11.6664 21.3872 9.92533 21.3872 7.77756C21.3872 5.62979 19.646 3.88867 17.4983 3.88867C15.3505 3.88867 13.6094 5.62979 13.6094 7.77756C13.6094 9.92533 15.3505 11.6664 17.4983 11.6664Z" fill="#99AAB5"/>
</g>
<defs>
<clipPath id="clip0_1288_164">
<rect width="35" height="35" fill="white"/>
</clipPath>
</defs>
</svg>
