<svg width="38" height="34" viewBox="0 0 38 34" fill="none" xmlns="http://www.w3.org/2000/svg">
<path d="M20.2019 1.92096L24.1978 10.0756C24.3481 10.3825 24.5877 10.6477 24.8916 10.8435C25.1956 11.0393 25.5526 11.1584 25.9256 11.1886L35.6601 11.9696C36.7616 12.113 37.2009 13.3216 36.4023 14.0175L29.0695 19.5292C28.4758 19.9755 28.2056 20.6767 28.3689 21.3541L30.5005 30.2817C30.6875 31.2619 29.5386 32.011 28.553 31.5461L20.0564 27.0942C19.7359 26.926 19.3711 26.8372 18.9995 26.8372C18.6279 26.8372 18.2631 26.926 17.9426 27.0942L9.44608 31.5435C8.46343 32.0056 7.31155 31.2592 7.49858 30.2791L9.63015 21.3514C9.79046 20.6741 9.52327 19.9728 8.92952 19.5266L1.59374 14.0202C0.798114 13.3269 1.23749 12.1156 2.33593 11.9722L12.0705 11.1913C12.4434 11.1611 12.8005 11.0419 13.1044 10.8461C13.4083 10.6504 13.648 10.3852 13.7983 10.0783L17.7942 1.92361C18.29 1.03111 19.7091 1.03111 20.2019 1.92096Z" fill="#FDD835"/>
<path d="M19.9101 10.5634L19.2332 4.55492C19.2065 4.22023 19.1293 3.64648 19.729 3.64648C20.204 3.64648 20.4623 4.53102 20.4623 4.53102L22.4929 9.35477C23.2588 11.1902 22.9441 11.8198 22.2049 12.1916C21.3559 12.6166 20.1031 12.2846 19.9101 10.5634Z" fill="#FFFF8D"/>
<path d="M28.2858 18.995L34.1105 14.9283C34.3985 14.7131 34.918 14.3705 34.5024 13.98C34.1729 13.6719 33.2823 14.1155 33.2823 14.1155L28.1849 15.8978C26.6649 16.368 25.6555 17.0639 25.5665 17.9405C25.4507 19.1092 26.6233 20.0097 28.2858 18.995Z" fill="#F4B400"/>
</svg>
