<svg width="24" height="24" viewBox="0 0 24 24" fill="none" xmlns="http://www.w3.org/2000/svg">
<path d="M20.4871 3.49296C22.829 5.8216 24 8.62911 24 11.9155C24 15.2019 22.829 18.0094 20.4871 20.338C18.1452 22.6667 15.3255 23.831 12.0281 23.831C10.0047 23.831 8.11241 23.3427 6.35129 22.3662L0 24L1.68618 17.8592C0.637002 16.0188 0.112412 14.0282 0.112412 11.8873C0.112412 8.61972 1.274 5.8216 3.59719 3.49296C5.92037 1.16432 8.73068 0 12.0281 0C15.3255 0 18.1452 1.16432 20.4871 3.49296ZM12.0281 21.8028C14.7635 21.8028 17.1054 20.8357 19.0539 18.9014C21.0023 16.9671 21.9766 14.6291 21.9766 11.8873C21.9766 9.14554 21.0023 6.80751 19.0539 4.87324C17.1054 2.93897 14.7635 1.97183 12.0281 1.97183C9.29274 1.97183 6.96019 2.93897 5.03045 4.87324C3.1007 6.80751 2.13583 9.14554 2.13583 11.8873C2.13583 13.8028 2.64169 15.5681 3.6534 17.1831L3.87822 17.5211L2.86651 21.1831L6.63232 20.2254L6.96955 20.3944C8.54333 21.3333 10.2295 21.8028 12.0281 21.8028ZM17.4801 14.3662C17.8173 14.554 18.0047 14.6854 18.0422 14.7606C18.192 14.9859 18.1358 15.4554 17.8735 16.169C17.7611 16.4695 17.4801 16.7606 17.0304 17.0423C16.5808 17.3239 16.1874 17.5023 15.8501 17.5775C15.1756 17.6526 14.5574 17.615 13.9953 17.4648C13.3583 17.2394 12.7963 17.0329 12.3091 16.8451C12.0094 16.6948 11.719 16.5352 11.4379 16.3662C11.1569 16.1972 10.8852 16.0282 10.623 15.8592C10.3607 15.6901 10.1171 15.5117 9.89227 15.3239C9.66745 15.1362 9.45199 14.9484 9.2459 14.7606C9.03981 14.5728 8.84309 14.3756 8.65574 14.169C8.46838 13.9624 8.30913 13.784 8.17799 13.6338C8.04684 13.4836 7.91569 13.3239 7.78454 13.1549C7.6534 12.9859 7.55035 12.8545 7.47541 12.7606C7.40047 12.6667 7.33489 12.5728 7.27869 12.4789L7.19438 12.338C6.37002 11.2488 5.95785 10.216 5.95785 9.23944C5.95785 8.33803 6.31382 7.51174 7.02576 6.76056C7.25059 6.49765 7.51288 6.3662 7.81265 6.3662C8.03747 6.3662 8.22482 6.38498 8.37471 6.42253C8.67447 6.42253 8.8993 6.59155 9.04918 6.92958C9.12412 7.04225 9.23653 7.28639 9.38642 7.66197L9.77986 8.64789L9.94848 9.12676C10.0609 9.31455 10.0796 9.48357 10.0047 9.6338C9.89227 9.89671 9.79859 10.0657 9.72365 10.1408L9.55503 10.3099L9.38642 10.507L9.274 10.6479C9.04918 10.8732 8.99297 11.0798 9.10539 11.2676C9.59251 12.0939 10.1546 12.7887 10.7916 13.3521C11.2787 13.7653 12.0843 14.2535 13.2084 14.8169C13.4707 14.9296 13.6768 14.9108 13.8267 14.7606C14.2763 14.1972 14.5948 13.8028 14.7822 13.5775C14.9321 13.3521 15.1569 13.2958 15.4567 13.4085C15.6815 13.5211 16.356 13.8404 17.4801 14.3662Z" fill="white"/>
</svg>
